<?xml version="1.0" encoding="utf-8"?><svg viewBox="0 0 48 48" xmlns="http://www.w3.org/2000/svg" xmlns:xlink="http://www.w3.org/1999/xlink"><style>:root>svg{display:none}:root>svg:target{display:block}</style><svg fill="none" viewBox="0 0 16 16" id="Line" xmlns="http://www.w3.org/2000/svg"><path d="M13.333 8.667a.667.667 0 100-1.334.667.667 0 000 1.334zM13.333 11.334a.667.667 0 100-1.334.667.667 0 000 1.334zM13.333 14a.667.667 0 100-1.333.667.667 0 000 1.333zM8 11.334A.667.667 0 108 10a.667.667 0 000 1.334zM8 14a.667.667 0 100-1.333A.667.667 0 008 14zM2.667 14a.667.667 0 100-1.333.667.667 0 000 1.333z" fill="#FCFCFD"/><path fill-rule="evenodd" clip-rule="evenodd" d="M13.333 6a2 2 0 110-4 2 2 0 010 4zm0-1.333a.667.667 0 110-1.334.667.667 0 010 1.334zM8 8.667a2 2 0 110-4 2 2 0 010 4zm0-1.334A.667.667 0 118 6a.667.667 0 010 1.333zM.667 9.333a2 2 0 104 0 2 2 0 00-4 0zm1.333 0a.667.667 0 101.333 0 .667.667 0 00-1.333 0z" fill="#FCFCFD"/></svg><svg fill="none" viewBox="0 0 20 20" id="Shape" xmlns="http://www.w3.org/2000/svg"><path d="M14.167 0c.46 0 .833.373.833.833V2.5a.833.833 0 11-1.667 0V.833c0-.46.373-.833.834-.833zM14.167 10c.46 0 .833.373.833.833v5a.833.833 0 11-1.667 0v-5c0-.46.373-.833.834-.833zM5.833 3.333c.46 0 .834.373.834.834v6.666a.833.833 0 11-1.667 0V4.167c0-.46.373-.834.833-.834zM5.833 15c.46 0 .834.373.834.833v3.334a.833.833 0 01-1.667 0v-3.334c0-.46.373-.833.833-.833z" fill="#777E91"/><path fill-rule="evenodd" clip-rule="evenodd" d="M11.667 4.167a2.5 2.5 0 015 0v5a2.5 2.5 0 01-5 0v-5zm3.333 0v5a.833.833 0 01-1.666 0v-5a.833.833 0 011.666 0zM3.333 12.5a2.5 2.5 0 015 0v1.666a2.5 2.5 0 01-5 0V12.5zm3.334 0v1.666a.833.833 0 01-1.667 0V12.5a.833.833 0 011.667 0z" fill="#777E91"/></svg><svg fill="none" viewBox="0 0 48 48" id="add_to_❤️_wishlist" xmlns="http://www.w3.org/2000/svg"><g filter="url(#cfilter0_d_5405_21194)"><path d="M8 16C8 7.163 15.163 0 24 0s16 7.163 16 16-7.163 16-16 16S8 24.837 8 16z" fill="#FCFCFD"/><path fill-rule="evenodd" clip-rule="evenodd" d="M24.577 11.764a.833.833 0 01-1.154 0l-.577-.553a3.75 3.75 0 00-6.346 2.706c0 1.985 1.075 3.625 2.627 4.972 1.553 1.348 3.41 2.242 4.519 2.699a.914.914 0 00.709 0c1.109-.457 2.966-1.351 4.519-2.7 1.551-1.346 2.626-2.986 2.626-4.971a3.75 3.75 0 00-6.346-2.707l-.577.554zM24 10.008a5.417 5.417 0 00-9.167 3.909c0 5.307 5.81 8.237 8.179 9.212a2.58 2.58 0 001.977 0c2.37-.975 8.178-3.905 8.178-9.212A5.417 5.417 0 0024 10.008z" fill="#777E91"/></g><defs><filter id="cfilter0_d_5405_21194" x="0" y="0" width="48" height="48" filterUnits="userSpaceOnUse" color-interpolation-filters="sRGB"><feFlood flood-opacity="0" result="BackgroundImageFix"/><feColorMatrix in="SourceAlpha" values="0 0 0 0 0 0 0 0 0 0 0 0 0 0 0 0 0 0 127 0" result="hardAlpha"/><feMorphology radius="8" in="SourceAlpha" result="effect1_dropShadow_5405_21194"/><feOffset dy="8"/><feGaussianBlur stdDeviation="8"/><feColorMatrix values="0 0 0 0 0.0583333 0 0 0 0 0.0583333 0 0 0 0 0.0583333 0 0 0 0.2 0"/><feBlend mode="multiply" in2="BackgroundImageFix" result="effect1_dropShadow_5405_21194"/><feBlend in="SourceGraphic" in2="effect1_dropShadow_5405_21194" result="shape"/></filter></defs></svg></svg>